<svg xmlns="http://www.w3.org/2000/svg" version="1.1" viewBox="0 0 24 24" aria-hidden="true" class="svg-inline--bi bi-heart-vi bi-lg" data-test="icon-heart-vi" focusable="false"><path d="M12 23.2l-.6-.4C3.5 17.2 0 12.9 0 9c0-3.5 2-6.7 4.9-7.9C7.3.2 9.8.7 12 2.6 14.2.7 16.7.2 19.1 1.1 22 2.3 24 5.5 24 9c0 3.9-3.5 8.2-11.4 13.8l-.6.4zM7.3 2.7c-.6 0-1.1.1-1.6.3C3.6 3.8 2 6.4 2 9c0 3 3.3 6.9 10 11.8C18.7 15.9 22 12 22 9c0-2.6-1.6-5.2-3.7-6-1.8-.7-3.8-.2-5.6 1.7l-.7.7-.7-.7c-1.3-1.3-2.7-2-4-2z" fill="#fff"></path></svg>