<svg xmlns="http://www.w3.org/2000/svg" width="799" height="209.03" viewBox="0 0 799 209.03">
  <g id="Group_2" data-name="Group 2" transform="translate(-16 -12.985)">
    <g id="Group_1" data-name="Group 1" transform="translate(-77 6)">
      <path id="bol.com" d="M77,69h40.87s-.292,65.155,0,138.18L77,207.21ZM189.87,98.35c45.14,0,62.39,29.39,62.39,55.33,0,28.37-19.86,55.32-62,55.32-45.14,0-62.8-29.18-62.8-55.32.04-27.57,18.7-55.33,62.44-55.33Zm0,76c12.76,0,21.54-8.52,21.54-20.67S202.66,133,189.9,133s-21.54,8.52-21.54,20.68,8.78,20.67,21.54,20.67ZM260.58,69h40.81V207.18H260.58Zm94.26,115.1c0,13.78-10.67,24.93-24.1,24.93s-24.31-11.15-24.31-24.93a24.43,24.43,0,0,1,24.31-24.72c13.43-.03,24.1,10.91,24.1,24.69Zm92.32,18.24c-13.57,5.07-21.82,6.69-33,6.69-34.79,0-59-22.49-59-54.72,0-26.75,17.49-55.93,57.79-55.93a105,105,0,0,1,33.42,5.47v35.47c-9-4.26-17.3-6.29-25.95-6.29-14.54,0-24.37,8.52-24.37,20.88,0,12.16,10.42,20.47,25.55,20.47,7.67,0,14.35-1.83,25.56-6.69ZM515,98.35c45.14,0,62.39,29.39,62.39,55.33,0,28.37-19.86,55.32-62,55.32-45.14,0-62.8-29.18-62.8-55.32C452.58,126.11,471.24,98.35,515,98.35Zm0,76c12.75,0,21.54-8.52,21.54-20.67S527.73,133,515,133s-21.55,8.52-21.55,20.68S502.22,174.35,515,174.35Zm71.25-74.18H627v14.19c9.88-10.94,21.51-16,34.42-16,14.72,0,24.19,5.67,32.06,19.05,10.68-12.36,23.79-19.05,37.9-19.05,24,0,34.4,19.05,34.4,40.33v68.5H725V145.77c0-7.7-4.52-12.77-11.38-12.77-6,0-12.84,3.85-17.08,10.95v63.23H655.47v-60.6c0-7.9-4.72-13.58-12-13.58-5.24,0-12,3.85-16.47,10.95v63.23H586.23ZM814.1,4C846.05,4,872,30.27,872,62.61s-26,58.62-57.94,58.62-58-26.3-58-58.62S782.15,4,814.1,4m0-4C780,0,752.19,28.09,752.19,62.61S780,125.2,814.1,125.2,876,97.12,876,62.61,848.23,0,814.1,0ZM785.4,68.27c-8,0-16.67-5.53-16.67-14.46,0-17,31.475-18.462,30.52-17.68,1.16-.55-25.89,7.24-25.89,19.98,0,5.52,2.9,7.67,10.35,7.67,8.75,0,28.64-12.06,28.64-20.76,0-3.25-2.42-4.9-7.18-4.9-11.79,0-16.168.84-16.058,0,.76-5.84,26.748-.15,26.748,6.18C815.85,56.65,798.69,68.27,785.4,68.27Zm19.35,41.15c-6.66,0-17.94-3-17.94-14.3,0-8.71-1.04-15.428,0-14.158.9,1.1,9.45-1.555,6.944,0-1.78,1.491-.2,2.955-.573,4.309-.745,2.52,0,4.486,0,12.1,0,4,.859,7.2,6.069,7.2,3.35,0,16.849.379,22.39-6.56,5.428-6.8,2.92-20.967,7.33-22.786,1.1-.46,5.71,1.04,6.31,2.25s.59,3.158,0,3.478c-4.3,2.4-2.354,13.485-8.96,20.866-4.8,5.359-18.275,7.633-21.57,7.633Zm29.11-40.58c-14.56,0-14.73-10.74-14.73-11.19a7.11,7.11,0,0,1,2.31-5c.62-.59,1.88-.28,2.39-.11,1,.31,2.11.95,2.25,1.66a.82.82,0,0,1-.3.8c-2,1.74-3,3-3,5.42,0,2.08,2.17,4.3,6.19,4.3,15.84,0,25.94-13.62,25.94-20.73,0-6.49-4.77-7.86-8.77-7.86-13.89,0-24.08,13.28-24.5,13.85h0a.89.89,0,0,1-.88.35c-1.09-.13-2.59-1.81-3.16-3.16a1.74,1.74,0,0,1,0-1.72,47.694,47.694,0,0,1,8.72-8.31c5.64-4.16,11.11-6.28,16.26-6.28,11.07,0,16.11,8.09,16.11,15.6-.06,11.97-11.63,22.42-24.83,22.42Z" transform="translate(16 6.985)" fill="#fff"/>
      <ellipse id="Ellipse_1" data-name="Ellipse 1" cx="5.5" cy="5" rx="5.5" ry="5" transform="translate(800 54)" fill="#fff"/>
      <ellipse id="Ellipse_2" data-name="Ellipse 2" cx="5.5" cy="5" rx="5.5" ry="5" transform="translate(849 54)" fill="#fff"/>
    </g>
    <g id="Group_3" data-name="Group 3">
      <line id="Line_1" data-name="Line 1" x2="16" y2="8" transform="matrix(0.695, -0.719, 0.719, 0.695, 726.065, 41.476)" fill="none"/>
      <line id="Line_2" data-name="Line 2" y1="9" x2="11" transform="matrix(0.53, 0.848, -0.848, 0.53, 776.902, 27.418)" fill="none"/>
    </g>
  </g>
</svg>
